<?xml version="1.0" encoding="utf-8"?>
<!-- Generator: Adobe Illustrator 15.1.0, SVG Export Plug-In . SVG Version: 6.00 Build 0)  -->
<!DOCTYPE svg PUBLIC "-//W3C//DTD SVG 1.1//EN" "http://www.w3.org/Graphics/SVG/1.1/DTD/svg11.dtd">
<svg version="1.1" id="Layer_1" xmlns="http://www.w3.org/2000/svg" xmlns:xlink="http://www.w3.org/1999/xlink" x="0px" y="0px"
	 width="2267.72px" height="1700.79px" viewBox="0 0 2267.72 1700.79" enable-background="new 0 0 2267.72 1700.79"
	 xml:space="preserve">
<g>
	<path fill="none" stroke="#000000" stroke-miterlimit="10" d="M2225.198,1615.748c0,23.482-19.036,42.52-42.52,42.52H85.041
		c-23.483,0-42.52-19.037-42.52-42.52V85.039c0-23.483,19.037-42.52,42.52-42.52h2097.638c23.483,0,42.52,19.037,42.52,42.52
		V1615.748z"/>
	<rect x="42.521" y="1488.188" fill="none" stroke="#000000" stroke-miterlimit="10" width="2182.677" height="85.039"/>
</g>
<text transform="matrix(1 0 0 1 68.3682 1538.377)"><tspan x="0" y="0" fill="none" stroke="#F68827" stroke-miterlimit="10" font-family="'Eng_HelvLine'" font-size="24">Date: 22-04-15</tspan><tspan x="205.318" y="0" fill="none" stroke="#F68827" stroke-miterlimit="10" font-family="'Eng_HelvLine'" font-size="24" letter-spacing="-1">	</tspan><tspan x="216" y="0" fill="none" stroke="#F68827" stroke-miterlimit="10" font-family="'Eng_HelvLine'" font-size="24" letter-spacing="24">	</tspan><tspan x="252" y="0" fill="none" stroke="#F68827" stroke-miterlimit="10" font-family="'Eng_HelvLine'" font-size="24">File Name: NRFC-10</tspan><tspan x="551.182" y="0" fill="none" stroke="#F68827" stroke-miterlimit="10" font-family="'Eng_HelvLine'" font-size="24" letter-spacing="12">	</tspan><tspan x="576.001" y="0" fill="none" stroke="#F68827" stroke-miterlimit="10" font-family="'Eng_HelvLine'" font-size="24" letter-spacing="24">	</tspan><tspan x="612.001" y="0" fill="none" stroke="#F68827" stroke-miterlimit="10" font-family="'Eng_HelvLine'" font-size="24">Version:</tspan><tspan x="730.559" y="0" fill="none" stroke="#F68827" stroke-miterlimit="10" font-family="'Eng_HelvLine'" font-size="24" letter-spacing="13">	</tspan><tspan x="756" y="0" fill="none" stroke="#F68827" stroke-miterlimit="10" font-family="'Eng_HelvLine'" font-size="24" letter-spacing="24">	</tspan><tspan x="792" y="0" fill="none" stroke="#F68827" stroke-miterlimit="10" font-family="'Eng_HelvLine'" font-size="24">Contributor: Stuart Childs stuchilds</tspan><tspan x="1316.01" y="0" fill="none" stroke="#F68827" stroke-miterlimit="10" font-family="'MyriadPro-Regular'" font-size="24">@</tspan><tspan x="1333.697" y="0" fill="none" stroke="#F68827" stroke-miterlimit="10" font-family="'Eng_HelvLine'" font-size="24">gmail.com</tspan><tspan x="1482.136" y="0" fill="none" stroke="#F68827" stroke-miterlimit="10" font-family="'Eng_HelvLine'" font-size="24" letter-spacing="17">	</tspan><tspan x="1512" y="0" fill="none" stroke="#F68827" stroke-miterlimit="10" font-family="'Eng_HelvLine'" font-size="24" letter-spacing="24">	</tspan><tspan x="0" y="86.4" fill="none" stroke="#F68827" stroke-miterlimit="10" font-family="'Eng_HelvLine'" font-size="36">License: Creative Commons Attribution 4.0 International License</tspan><tspan x="1424.217" y="86.4" fill="none" stroke="#F68827" stroke-miterlimit="10" font-family="'Eng_HelvLine'" font-size="36" letter-spacing="-2">	</tspan><tspan x="1440.002" y="86.4" fill="none" stroke="#F68827" stroke-miterlimit="10" font-family="'Eng_HelvLine'" font-size="36" letter-spacing="18">	</tspan></text>
<rect x="2172.826" y="1443.826" fill="none" stroke="#F68827" stroke-miterlimit="10" width="28.347" height="28.347"/>
<g>
	<path fill="none" stroke="#F68827" stroke-miterlimit="10" d="M1830.944,1460.075c0,2.881,2.197,4.033,4.771,4.033
		c2.611,0,4.249-1.639,4.304-3.241c0.054-1.585-0.757-2.845-2.359-3.188l-4.411-0.954c-1.242-0.27-1.98-0.99-1.98-2.683
		s1.423-3.15,4.016-3.15s4.483,1.224,4.411,3.366c0.072-2.143-1.818-3.366-4.411-3.366s-4.016,1.458-4.016,3.15
		s0.702,2.395,1.98,2.683l4.411,0.954c1.639,0.343,2.413,1.603,2.359,3.188c-0.055,1.603-1.692,3.241-4.304,3.241
		C1833.142,1464.108,1830.944,1462.956,1830.944,1460.075z"/>
	<path fill="none" stroke="#F68827" stroke-miterlimit="10" d="M1851.719,1461.065c-0.054,1.512-1.674,2.935-3.205,2.935
		c-1.512,0-4.123-0.252-4.123-4.771c0-4.501,2.917-4.556,4.195-4.556s2.971,0.99,3.079,2.251c-0.108-1.261-1.801-2.251-3.079-2.251
		s-4.195,0.055-4.195,4.556c0,4.52,2.611,4.771,4.123,4.771C1850.045,1464,1851.665,1462.577,1851.719,1461.065z"/>
	<path fill="none" stroke="#F68827" stroke-miterlimit="10" d="M1858.629,1464.108c-1.494-0.055-2.683-0.522-2.683-2.179
		c0-1.675,1.009-2.377,2.917-2.557c1.891-0.181,2.737-0.469,3.637-0.721c-0.899,0.252-1.746,0.54-3.637,0.721
		c-1.908,0.18-2.917,0.882-2.917,2.557C1855.946,1463.586,1857.135,1464.054,1858.629,1464.108c1.477,0.054,3.331-1.692,3.871-2.467
		C1861.96,1462.416,1860.105,1464.162,1858.629,1464.108z M1862.5,1462.83v-5.924c0-0.757-0.378-2.197-2.809-2.197
		s-3.331,1.099-3.331,2.232c0-1.134,0.9-2.232,3.331-2.232s2.809,1.44,2.809,2.197V1462.83c0,1.08,1.279,1.17,1.279,1.17
		S1862.5,1463.91,1862.5,1462.83z"/>
	<path fill="none" stroke="#F68827" stroke-miterlimit="10" d="M1869.986,1464v-12.981V1464z"/>
	<path fill="none" stroke="#F68827" stroke-miterlimit="10" d="M1875.999,1459.066h8.048c0-1.998-0.792-4.556-3.655-4.556
		c-2.845,0-4.411,1.945-4.411,4.916c0,2.989,2.017,4.573,4.411,4.501c2.413-0.072,3.457-1.944,3.583-2.61
		c-0.126,0.666-1.17,2.538-3.583,2.61c-2.395,0.072-4.411-1.512-4.411-4.501c0-2.971,1.566-4.916,4.411-4.916
		c2.863,0,3.655,2.558,3.655,4.556H1875.999z"/>
	<path fill="none" stroke="#F68827" stroke-miterlimit="10" d="M1890.436,1458.311v-0.99V1458.311z M1890.436,1464v-0.99V1464z"/>
	<path fill="none" stroke="#F68827" stroke-miterlimit="10" d="M1911.693,1456.42c0.036-0.45-0.558-1.711-2.826-1.801
		c-2.269-0.054-3.313,0.666-3.313,2.053c0,1.404,1.171,1.837,1.603,1.963l3.403,1.008c0.45,0.108,1.53,0.595,1.53,1.927
		s-1.422,2.431-3.223,2.431s-3.439-0.954-3.439-2.358c0,1.404,1.639,2.358,3.439,2.358s3.223-1.099,3.223-2.431
		s-1.08-1.818-1.53-1.927l-3.403-1.008c-0.432-0.126-1.603-0.559-1.603-1.963c0-1.387,1.045-2.106,3.313-2.053
		C1911.136,1454.709,1911.729,1455.97,1911.693,1456.42z"/>
	<path fill="none" stroke="#F68827" stroke-miterlimit="10" d="M1916.265,1459.337c0-3.638,1.729-4.718,3.817-4.718
		c2.106,0,3.816,1.08,3.816,4.718c0,3.655-1.71,4.699-3.816,4.699C1917.993,1464.036,1916.265,1462.992,1916.265,1459.337z
		 M1916.265,1459.337c0-3.638,1.729-4.718,3.817-4.718c2.106,0,3.816,1.08,3.816,4.718c0,3.655-1.71,4.699-3.816,4.699
		C1917.993,1464.036,1916.265,1462.992,1916.265,1459.337z M1923.935,1454.619v13.018V1454.619z"/>
	<path fill="none" stroke="#F68827" stroke-miterlimit="10" d="M1931.133,1454.728c0,0,0,6.031,0,6.859
		c0,0.829,0.828,2.377,3.114,2.396c2.305,0.018,3.529-1.765,3.529-3.422c0,1.657-1.225,3.439-3.529,3.422
		c-2.286-0.019-3.114-1.566-3.114-2.396C1931.133,1460.759,1931.133,1454.728,1931.133,1454.728z M1937.776,1454.728v9.255V1454.728
		z"/>
	<path fill="none" stroke="#F68827" stroke-miterlimit="10" d="M1950.609,1461.642c-0.54,0.774-2.395,2.521-3.871,2.467
		c-1.494-0.055-2.683-0.522-2.683-2.179c0-1.675,1.009-2.377,2.917-2.557c1.891-0.181,2.737-0.469,3.637-0.721
		c-0.899,0.252-1.746,0.54-3.637,0.721c-1.908,0.18-2.917,0.882-2.917,2.557c0,1.656,1.188,2.124,2.683,2.179
		C1948.215,1464.162,1950.069,1462.416,1950.609,1461.642z M1951.889,1464c0,0-1.279-0.09-1.279-1.17v-5.924
		c0-0.757-0.378-2.197-2.809-2.197s-3.331,1.099-3.331,2.232c0-1.134,0.9-2.232,3.331-2.232s2.809,1.44,2.809,2.197v5.924
		C1950.609,1463.91,1951.889,1464,1951.889,1464z"/>
	<path fill="none" stroke="#F68827" stroke-miterlimit="10" d="M1961.68,1454.764c-1.675-0.019-3.584,2.448-3.529,4.519
		C1958.096,1457.212,1960.005,1454.745,1961.68,1454.764z M1958.15,1454.764V1464V1454.764z"/>
	<path fill="none" stroke="#F68827" stroke-miterlimit="10" d="M1965.836,1459.066h8.048c0-1.998-0.792-4.556-3.655-4.556
		c-2.845,0-4.411,1.945-4.411,4.916c0,2.989,2.017,4.573,4.411,4.501c2.413-0.072,3.457-1.944,3.584-2.61
		c-0.127,0.666-1.171,2.538-3.584,2.61c-2.395,0.072-4.411-1.512-4.411-4.501c0-2.971,1.566-4.916,4.411-4.916
		c2.863,0,3.655,2.558,3.655,4.556H1965.836z"/>
	<path fill="none" stroke="#F68827" stroke-miterlimit="10" d="M1989.29,1451.324V1451V1451.324z M1989.29,1463.982v-9.237
		C1989.29,1454.745,1989.29,1464.018,1989.29,1463.982z"/>
	<path fill="none" stroke="#F68827" stroke-miterlimit="10" d="M1998.723,1454.619c-2.269-0.054-3.313,0.666-3.313,2.053
		c0,1.404,1.171,1.837,1.603,1.963l3.403,1.008c0.45,0.108,1.53,0.595,1.53,1.927s-1.422,2.431-3.223,2.431
		s-3.439-0.954-3.439-2.358c0,1.404,1.639,2.358,3.439,2.358s3.223-1.099,3.223-2.431s-1.08-1.818-1.53-1.927l-3.403-1.008
		c-0.432-0.126-1.603-0.559-1.603-1.963C1995.409,1455.285,1996.454,1454.565,1998.723,1454.619c2.269,0.09,2.862,1.351,2.826,1.801
		C2001.585,1455.97,2000.991,1454.709,1998.723,1454.619z"/>
	<path fill="none" stroke="#F68827" stroke-miterlimit="10" d="M2018.198,1464v-12.981c0,2.214-2.143,2.736-3.062,2.809
		c0.919-0.072,3.062-0.595,3.062-2.809V1464z"/>
	<path fill="none" stroke="#F68827" stroke-miterlimit="10" d="M2024.245,1457.518c0-3.564,0.757-6.481,3.926-6.481
		s3.925,2.917,3.925,6.481c0,3.584-0.756,6.482-3.925,6.482S2024.245,1461.102,2024.245,1457.518z M2024.245,1457.518
		c0-3.564,0.757-6.481,3.926-6.481s3.925,2.917,3.925,6.481c0,3.584-0.756,6.482-3.925,6.482S2024.245,1461.102,2024.245,1457.518z"
		/>
	<path fill="none" stroke="#F68827" stroke-miterlimit="10" d="M2044.443,1464c0,0,0-6.014,0-6.842s-0.54-2.377-2.827-2.395
		c-2.287-0.019-3.313,1.764-3.313,3.421c0-1.657,1.026-3.439,3.313-3.421c2.287,0.018,2.827,1.566,2.827,2.395
		S2044.443,1464,2044.443,1464z M2038.303,1464v-9.236V1464z M2050.637,1464c0,0,0-6.014,0-6.842s-0.792-2.377-3.079-2.395
		c-2.286-0.019-3.114,1.764-3.114,3.421c0-1.657,0.828-3.439,3.114-3.421c2.287,0.018,3.079,1.566,3.079,2.395
		S2050.637,1464,2050.637,1464z"/>
	<path fill="none" stroke="#F68827" stroke-miterlimit="10" d="M2064.207,1464c0,0,0-6.014,0-6.842s-0.54-2.377-2.827-2.395
		c-2.287-0.019-3.313,1.764-3.313,3.421c0-1.657,1.026-3.439,3.313-3.421c2.287,0.018,2.827,1.566,2.827,2.395
		S2064.207,1464,2064.207,1464z M2058.066,1464v-9.236V1464z M2070.4,1464c0,0,0-6.014,0-6.842s-0.792-2.377-3.079-2.395
		c-2.286-0.019-3.114,1.764-3.114,3.421c0-1.657,0.828-3.439,3.114-3.421c2.287,0.018,3.079,1.566,3.079,2.395
		S2070.4,1464,2070.4,1464z"/>
	<path fill="none" stroke="#F68827" stroke-miterlimit="10" d="M2084.886,1464l3.709-5.149l-2.952-4.087l2.952,4.087l2.972-4.087
		l-2.972,4.087l3.728,5.149l-3.728-5.149L2084.886,1464z"/>
	<path fill="none" stroke="#F68827" stroke-miterlimit="10" d="M2108.63,1464v-12.981c0,2.214-2.143,2.736-3.062,2.809
		c0.919-0.072,3.062-0.595,3.062-2.809V1464z"/>
	<path fill="none" stroke="#F68827" stroke-miterlimit="10" d="M2114.676,1457.518c0-3.564,0.757-6.481,3.926-6.481
		s3.925,2.917,3.925,6.481c0,3.584-0.756,6.482-3.925,6.482S2114.676,1461.102,2114.676,1457.518z M2114.676,1457.518
		c0-3.564,0.757-6.481,3.926-6.481s3.925,2.917,3.925,6.481c0,3.584-0.756,6.482-3.925,6.482S2114.676,1461.102,2114.676,1457.518z"
		/>
	<path fill="none" stroke="#F68827" stroke-miterlimit="10" d="M2134.875,1457.158c0-0.828-0.54-2.377-2.827-2.395
		c-2.287-0.019-3.313,1.764-3.313,3.421c0-1.657,1.026-3.439,3.313-3.421C2134.335,1454.781,2134.875,1456.33,2134.875,1457.158
		s0,6.842,0,6.842S2134.875,1457.986,2134.875,1457.158z M2128.734,1454.764V1464V1454.764z M2141.068,1457.158
		c0-0.828-0.792-2.377-3.079-2.395c-2.286-0.019-3.114,1.764-3.114,3.421c0-1.657,0.828-3.439,3.114-3.421
		C2140.276,1454.781,2141.068,1456.33,2141.068,1457.158s0,6.842,0,6.842S2141.068,1457.986,2141.068,1457.158z"/>
	<path fill="none" stroke="#F68827" stroke-miterlimit="10" d="M2154.639,1457.158c0-0.828-0.54-2.377-2.827-2.395
		c-2.287-0.019-3.313,1.764-3.313,3.421c0-1.657,1.026-3.439,3.313-3.421C2154.099,1454.781,2154.639,1456.33,2154.639,1457.158
		s0,6.842,0,6.842S2154.639,1457.986,2154.639,1457.158z M2148.498,1454.764V1464V1454.764z M2160.832,1457.158
		c0-0.828-0.792-2.377-3.079-2.395c-2.286-0.019-3.114,1.764-3.114,3.421c0-1.657,0.828-3.439,3.114-3.421
		C2160.04,1454.781,2160.832,1456.33,2160.832,1457.158s0,6.842,0,6.842S2160.832,1457.986,2160.832,1457.158z"/>
</g>
<path fill="none" stroke="#000000" stroke-miterlimit="10" d="M144.802,1197.777h-7.58v-12.981v12.981H144.802z"/>
<path fill="none" stroke="#000000" stroke-miterlimit="10" d="M155.691,1195.419c-0.54,0.774-2.395,2.521-3.871,2.467
	c-1.495-0.054-2.683-0.522-2.683-2.179c0-1.674,1.008-2.377,2.917-2.557c1.891-0.18,2.737-0.469,3.637-0.721
	c-0.9,0.252-1.747,0.541-3.637,0.721c-1.909,0.18-2.917,0.883-2.917,2.557c0,1.656,1.188,2.125,2.683,2.179
	C153.296,1197.939,155.151,1196.193,155.691,1195.419z M156.969,1197.777c0,0-1.278-0.09-1.278-1.17v-5.924
	c0-0.756-0.378-2.196-2.809-2.196c-2.431,0-3.331,1.099-3.331,2.232c0-1.134,0.9-2.232,3.331-2.232c2.431,0,2.809,1.44,2.809,2.196
	v5.924C155.691,1197.688,156.969,1197.777,156.969,1197.777z"/>
<path fill="none" stroke="#000000" stroke-miterlimit="10" d="M167.499,1190.197c0.036-0.449-0.558-1.71-2.827-1.801
	c-2.269-0.054-3.313,0.667-3.313,2.053c0,1.404,1.17,1.837,1.603,1.963l3.403,1.008c0.45,0.108,1.53,0.595,1.53,1.928
	c0,1.332-1.422,2.43-3.223,2.43c-1.801,0-3.439-0.953-3.439-2.358c0,1.405,1.638,2.358,3.439,2.358c1.8,0,3.223-1.098,3.223-2.43
	c0-1.333-1.08-1.819-1.53-1.928l-3.403-1.008c-0.433-0.126-1.603-0.559-1.603-1.963c0-1.386,1.044-2.106,3.313-2.053
	C166.94,1188.487,167.535,1189.748,167.499,1190.197z"/>
<path fill="none" stroke="#000000" stroke-miterlimit="10" d="M180.153,1192.844c0-1.998-0.792-4.555-3.655-4.555
	c-2.845,0-4.412,1.944-4.412,4.916c0,2.988,2.017,4.572,4.412,4.501c2.413-0.072,3.457-1.944,3.583-2.61
	c-0.126,0.666-1.17,2.538-3.583,2.61c-2.395,0.071-4.412-1.513-4.412-4.501c0-2.972,1.567-4.916,4.412-4.916
	C179.361,1188.289,180.153,1190.846,180.153,1192.844h-8.048H180.153z"/>
<path fill="none" stroke="#000000" stroke-miterlimit="10" d="M186.595,1193.061c-0.054-2.07,1.854-4.537,3.529-4.52
	C188.45,1188.523,186.541,1190.99,186.595,1193.061z M186.595,1197.777v-9.236V1197.777z"/>
<path fill="none" stroke="#000000" stroke-miterlimit="10" d="M203.262,1193.853c0,2.881,2.197,4.033,4.771,4.033
	c2.611,0,4.25-1.638,4.304-3.241c0.054-1.584-0.756-2.845-2.359-3.187l-4.412-0.954c-1.242-0.271-1.98-0.99-1.98-2.684
	c0-1.691,1.422-3.15,4.015-3.15s4.483,1.225,4.412,3.367c0.072-2.143-1.819-3.367-4.412-3.367s-4.015,1.459-4.015,3.15
	c0,1.693,0.702,2.396,1.98,2.684l4.412,0.954c1.638,0.342,2.413,1.603,2.359,3.187c-0.054,1.604-1.693,3.241-4.304,3.241
	C205.459,1197.886,203.262,1196.733,203.262,1193.853z"/>
<path fill="none" stroke="#000000" stroke-miterlimit="10" d="M216.726,1192.844h8.049c0-1.998-0.792-4.555-3.655-4.555
	c-2.845,0-4.411,1.944-4.411,4.916c0,2.988,2.017,4.572,4.411,4.501c2.413-0.072,3.457-1.944,3.583-2.61
	c-0.126,0.666-1.17,2.538-3.583,2.61c-2.395,0.071-4.411-1.513-4.411-4.501c0-2.972,1.566-4.916,4.411-4.916
	c2.863,0,3.655,2.557,3.655,4.555H216.726z"/>
<path fill="none" stroke="#000000" stroke-miterlimit="10" d="M229.218,1188.451h3.763H229.218z M232.945,1197.688
	c-0.882,0.055-1.837,0.09-1.837-1.116c0-1.224,0-11.523,0-11.523s0,10.3,0,11.523
	C231.108,1197.777,232.063,1197.742,232.945,1197.688z"/>
<path fill="none" stroke="#000000" stroke-miterlimit="10" d="M237.03,1188.451h3.763H237.03z M240.757,1197.688
	c-0.882,0.055-1.837,0.09-1.837-1.116c0-1.224,0-11.523,0-11.523s0,10.3,0,11.523
	C238.92,1197.777,239.875,1197.742,240.757,1197.688z"/>
<path fill="none" stroke="#000000" stroke-miterlimit="10" d="M246.805,1185.102v-0.324V1185.102z M246.805,1197.76v-9.236
	C246.805,1188.523,246.805,1197.796,246.805,1197.76z"/>
<path fill="none" stroke="#000000" stroke-miterlimit="10" d="M261.368,1197.777c0,0,0-6.014,0-6.842s-0.828-2.377-3.115-2.395
	c-2.305-0.018-3.511,1.765-3.511,3.421c0-1.656,1.207-3.438,3.511-3.421c2.287,0.018,3.115,1.566,3.115,2.395
	S261.368,1197.777,261.368,1197.777z M254.742,1197.777v-9.236V1197.777z"/>
<path fill="none" stroke="#000000" stroke-miterlimit="10" d="M270.367,1188.451c2.089,0,3.817,1.044,3.817,4.646
	c0,3.601-1.729,4.646-3.817,4.646c-2.088,0-3.799-1.045-3.799-4.646C266.568,1189.495,268.278,1188.451,270.367,1188.451z
	 M270.367,1188.451c2.089,0,3.817,1.044,3.817,4.646c0,3.601-1.729,4.646-3.817,4.646c-2.088,0-3.799-1.045-3.799-4.646
	C266.568,1189.495,268.278,1188.451,270.367,1188.451z M267.108,1199.65c0.198,1.08,1.512,1.692,3.313,1.765
	c1.836,0.054,3.763-1.296,3.763-2.972c0-1.691,0-9.848,0-9.848s0,8.156,0,9.848c0,1.676-1.927,3.025-3.763,2.972
	C268.62,1201.343,267.306,1200.73,267.108,1199.65z"/>
<path fill="none" stroke="#000000" stroke-miterlimit="10" d="M284.695,1190.197c0.036-0.449-0.558-1.71-2.827-1.801
	c-2.269-0.054-3.313,0.667-3.313,2.053c0,1.404,1.17,1.837,1.602,1.963l3.403,1.008c0.45,0.108,1.53,0.595,1.53,1.928
	c0,1.332-1.422,2.43-3.223,2.43c-1.801,0-3.439-0.953-3.439-2.358c0,1.405,1.639,2.358,3.439,2.358c1.8,0,3.223-1.098,3.223-2.43
	c0-1.333-1.08-1.819-1.53-1.928l-3.403-1.008c-0.432-0.126-1.602-0.559-1.602-1.963c0-1.386,1.044-2.106,3.313-2.053
	C284.137,1188.487,284.731,1189.748,284.695,1190.197z"/>
<path fill="none" stroke="#F58220" stroke-width="0.7087" stroke-linecap="round" stroke-linejoin="round" stroke-miterlimit="22.9256" d="
	M135.277,1255.988c0-4.971,2.575-6.734,5.726-6.734s5.726,1.764,5.726,6.734c0,4.969-2.575,6.697-5.726,6.697
	S135.277,1260.957,135.277,1255.988z M135.277,1255.988c0-4.971,2.575-6.734,5.726-6.734s5.726,1.764,5.726,6.734
	c0,4.969-2.575,6.697-5.726,6.697S135.277,1260.957,135.277,1255.988z"/>
<path fill="none" stroke="#F58220" stroke-width="0.7087" stroke-linecap="round" stroke-linejoin="round" stroke-miterlimit="22.9256" d="
	M153.17,1257.86c-0.054-2.071,1.854-4.538,3.529-4.52C155.024,1253.322,153.116,1255.789,153.17,1257.86z M153.17,1262.578v-9.237
	V1262.578z"/>
<path fill="none" stroke="#F58220" stroke-width="0.7087" stroke-linecap="round" stroke-linejoin="round" stroke-miterlimit="22.9256" d="
	M163.52,1262.686c-1.495-0.054-2.683-0.521-2.683-2.179c0-1.675,1.009-2.376,2.917-2.557c1.891-0.181,2.737-0.468,3.637-0.72
	c-0.9,0.252-1.747,0.539-3.637,0.72c-1.908,0.181-2.917,0.882-2.917,2.557C160.836,1262.164,162.025,1262.632,163.52,1262.686
	c1.477,0.055,3.331-1.692,3.871-2.467C166.851,1260.993,164.996,1262.74,163.52,1262.686z M167.391,1261.407v-5.924
	c0-0.756-0.378-2.196-2.809-2.196c-2.431,0-3.331,1.098-3.331,2.232c0-1.135,0.9-2.232,3.331-2.232c2.431,0,2.809,1.44,2.809,2.196
	V1261.407c0,1.081,1.278,1.171,1.278,1.171S167.391,1262.488,167.391,1261.407z"/>
<path fill="none" stroke="#F58220" stroke-width="0.7087" stroke-linecap="round" stroke-linejoin="round" stroke-miterlimit="22.9256" d="
	M181.503,1262.578c0,0,0-6.014,0-6.843c0-0.828-0.828-2.376-3.115-2.395c-2.305-0.019-3.511,1.765-3.511,3.421
	c0-1.656,1.207-3.439,3.511-3.421c2.287,0.019,3.115,1.566,3.115,2.395C181.503,1256.564,181.503,1262.578,181.503,1262.578z
	 M174.877,1262.578v-9.237V1262.578z"/>
<path fill="none" stroke="#F58220" stroke-width="0.7087" stroke-linecap="round" stroke-linejoin="round" stroke-miterlimit="22.9256" d="
	M190.502,1253.251c2.089,0,3.817,1.044,3.817,4.646c0,3.601-1.729,4.645-3.817,4.645c-2.088,0-3.799-1.044-3.799-4.645
	C186.703,1254.295,188.414,1253.251,190.502,1253.251z M190.502,1253.251c2.089,0,3.817,1.044,3.817,4.646
	c0,3.601-1.729,4.645-3.817,4.645c-2.088,0-3.799-1.044-3.799-4.645C186.703,1254.295,188.414,1253.251,190.502,1253.251z
	 M187.243,1264.45c0.198,1.08,1.512,1.692,3.313,1.765c1.836,0.054,3.763-1.297,3.763-2.971c0-1.693,0-9.85,0-9.85s0,8.156,0,9.85
	c0,1.674-1.927,3.024-3.763,2.971C188.755,1266.143,187.441,1265.53,187.243,1264.45z"/>
<path fill="none" stroke="#F58220" stroke-width="0.7087" stroke-linecap="round" stroke-linejoin="round" stroke-miterlimit="22.9256" d="
	M206.631,1257.645c0-1.999-0.792-4.556-3.655-4.556c-2.845,0-4.411,1.944-4.411,4.915c0,2.989,2.017,4.574,4.411,4.502
	c2.413-0.072,3.457-1.945,3.583-2.611c-0.126,0.666-1.17,2.539-3.583,2.611c-2.395,0.072-4.411-1.513-4.411-4.502
	c0-2.971,1.566-4.915,4.411-4.915C205.839,1253.089,206.631,1255.646,206.631,1257.645h-8.049H206.631z"/>
<path fill="none" stroke="#F58220" stroke-width="0.7087" stroke-linecap="round" stroke-linejoin="round" stroke-miterlimit="22.9256" d="
	M213.019,1256.888v-0.99V1256.888z M213.019,1262.578v-0.99V1262.578z"/>
<path fill="none" stroke="#F58220" stroke-width="0.7087" stroke-linecap="round" stroke-linejoin="round" stroke-miterlimit="22.9256" d="
	M231.667,1262.578l-3.655-9.237L231.667,1262.578l3.691-9.237L231.667,1262.578z"/>
<path fill="none" stroke="#F58220" stroke-width="0.7087" stroke-linecap="round" stroke-linejoin="round" stroke-miterlimit="22.9256" d="
	M239.604,1257.645h8.049c0-1.999-0.792-4.556-3.655-4.556c-2.845,0-4.411,1.944-4.411,4.915c0,2.989,2.017,4.574,4.411,4.502
	c2.413-0.072,3.457-1.945,3.583-2.611c-0.126,0.666-1.17,2.539-3.583,2.611c-2.395,0.072-4.411-1.513-4.411-4.502
	c0-2.971,1.566-4.915,4.411-4.915c2.863,0,3.655,2.557,3.655,4.556H239.604z"/>
<path fill="none" stroke="#F58220" stroke-width="0.7087" stroke-linecap="round" stroke-linejoin="round" stroke-miterlimit="22.9256" d="
	M259.424,1259.643c-0.054,1.513-1.675,2.936-3.205,2.936c-1.513,0-4.123-0.252-4.123-4.771c0-4.502,2.917-4.556,4.195-4.556
	c1.279,0,2.971,0.99,3.079,2.251c-0.108-1.261-1.8-2.251-3.079-2.251c-1.278,0-4.195,0.054-4.195,4.556
	c0,4.52,2.61,4.771,4.123,4.771C257.75,1262.578,259.37,1261.155,259.424,1259.643z"/>
<path fill="none" stroke="#F58220" stroke-width="0.7087" stroke-linecap="round" stroke-linejoin="round" stroke-miterlimit="22.9256" d="
	M263.652,1253.251h3.763H263.652z M267.379,1262.488c-0.882,0.053-1.837,0.09-1.837-1.117c0-1.225,0-11.523,0-11.523
	s0,10.299,0,11.523C265.542,1262.578,266.497,1262.541,267.379,1262.488z"/>
<path fill="none" stroke="#F58220" stroke-width="0.7087" stroke-linecap="round" stroke-linejoin="round" stroke-miterlimit="22.9256" d="
	M271.464,1257.86c0-3.638,1.854-4.7,4.087-4.7c2.251,0,4.087,1.062,4.087,4.7c0,3.655-1.836,4.718-4.087,4.718
	C273.319,1262.578,271.464,1261.516,271.464,1257.86z M271.464,1257.86c0-3.638,1.854-4.7,4.087-4.7c2.251,0,4.087,1.062,4.087,4.7
	c0,3.655-1.836,4.718-4.087,4.718C273.319,1262.578,271.464,1261.516,271.464,1257.86z"/>
<path fill="none" stroke="#F58220" stroke-width="0.7087" stroke-linecap="round" stroke-linejoin="round" stroke-miterlimit="22.9256" d="
	M285.918,1257.86c-0.054-2.071,1.854-4.538,3.529-4.52C287.773,1253.322,285.864,1255.789,285.918,1257.86z M285.918,1262.578
	v-9.237V1262.578z"/>
<path fill="none" stroke="#F58220" stroke-width="0.7087" stroke-linecap="round" stroke-linejoin="round" stroke-miterlimit="22.9256" d="
	M302.603,1257.645h8.049c0-1.999-0.792-4.556-3.655-4.556c-2.845,0-4.411,1.944-4.411,4.915c0,2.989,2.017,4.574,4.411,4.502
	c2.413-0.072,3.457-1.945,3.583-2.611c-0.126,0.666-1.17,2.539-3.583,2.611c-2.395,0.072-4.411-1.513-4.411-4.502
	c0-2.971,1.566-4.915,4.411-4.915c2.863,0,3.655,2.557,3.655,4.556H302.603z"/>
<path fill="none" stroke="#F58220" stroke-width="0.7087" stroke-linecap="round" stroke-linejoin="round" stroke-miterlimit="22.9256" d="
	M315.095,1253.251h3.763H315.095z M318.823,1262.488c-0.882,0.053-1.837,0.09-1.837-1.117c0-1.225,0-11.523,0-11.523
	s0,10.299,0,11.523C316.986,1262.578,317.94,1262.541,318.823,1262.488z"/>
<path fill="none" stroke="#F58220" stroke-width="0.7087" stroke-linecap="round" stroke-linejoin="round" stroke-miterlimit="22.9256" d="
	M327.03,1262.578c-1.513,0-4.124-0.252-4.124-4.771c0-4.502,2.917-4.556,4.195-4.556s2.971,0.99,3.079,2.251
	c-0.108-1.261-1.801-2.251-3.079-2.251s-4.195,0.054-4.195,4.556C322.907,1262.326,325.518,1262.578,327.03,1262.578
	c1.53,0,3.151-1.423,3.205-2.936C330.181,1261.155,328.561,1262.578,327.03,1262.578z"/>
<path fill="none" stroke="#F58220" stroke-width="0.7087" stroke-linecap="round" stroke-linejoin="round" stroke-miterlimit="22.9256" d="
	M336.408,1262.578v-12.982V1262.578z M343.142,1262.578c0,0,0-4.682,0-6.32s-0.99-2.881-2.917-2.917
	c-1.963-0.036-3.817,1.152-3.817,2.719c0-1.566,1.854-2.755,3.817-2.719c1.926,0.036,2.917,1.278,2.917,2.917
	S343.142,1262.578,343.142,1262.578z"/>
<path fill="none" stroke="#000000" stroke-miterlimit="10" d="M137.222,1277.498h4.987c2.593,0,3.655-1.566,3.601-3.133
	c-0.072-1.566-1.17-3.17-3.565-3.17h-5.023v12.982h5.528c2.052,0,3.673-1.225,3.673-3.277c-0.036-2.053-1.747-3.402-4.213-3.402
	c2.467,0,4.177,1.35,4.213,3.402c0,2.053-1.621,3.277-3.673,3.277h-5.528v-12.982h5.023c2.395,0,3.493,1.604,3.565,3.17
	c0.054,1.566-1.008,3.133-3.601,3.133H137.222z"/>
<path fill="none" stroke="#000000" stroke-miterlimit="10" d="M152.792,1284.178v-12.982V1284.178z"/>
<path fill="none" stroke="#000000" stroke-miterlimit="10" d="M161.468,1284.285c-1.495-0.053-2.683-0.521-2.683-2.178
	c0-1.675,1.009-2.377,2.917-2.557c1.891-0.181,2.737-0.469,3.637-0.721c-0.9,0.252-1.747,0.54-3.637,0.721
	c-1.908,0.18-2.917,0.882-2.917,2.557C158.785,1283.764,159.973,1284.232,161.468,1284.285c1.477,0.055,3.331-1.691,3.871-2.467
	C164.799,1282.594,162.944,1284.34,161.468,1284.285z M165.339,1283.008v-5.924c0-0.757-0.378-2.197-2.809-2.197
	c-2.431,0-3.331,1.099-3.331,2.232c0-1.134,0.9-2.232,3.331-2.232c2.431,0,2.809,1.44,2.809,2.197V1283.008
	c0,1.08,1.278,1.17,1.278,1.17S165.339,1284.088,165.339,1283.008z"/>
<path fill="none" stroke="#000000" stroke-miterlimit="10" d="M175.004,1284.178c-1.513,0-4.124-0.252-4.124-4.771
	c0-4.502,2.917-4.555,4.195-4.555s2.971,0.99,3.079,2.25c-0.108-1.26-1.801-2.25-3.079-2.25s-4.195,0.053-4.195,4.555
	C170.88,1283.926,173.491,1284.178,175.004,1284.178c1.53,0,3.151-1.422,3.205-2.936
	C178.155,1282.756,176.534,1284.178,175.004,1284.178z"/>
<path fill="none" stroke="#000000" stroke-miterlimit="10" d="M184.381,1284.178v-3.637l2.485-2.413l3.925,6.05l-3.925-6.05
	l3.313-3.187l-5.798,5.6v-9.346V1284.178z"/>
<path fill="none" stroke="#000000" stroke-miterlimit="10" d="M197.017,1278.488v-0.99V1278.488z M197.017,1284.178v-0.99V1284.178z
	"/>
<path fill="none" stroke="#000000" stroke-miterlimit="10" d="M219.357,1274.941l-3.691,9.236l-3.655-9.236l3.655,9.236
	L219.357,1274.941z"/>
<path fill="none" stroke="#000000" stroke-miterlimit="10" d="M223.602,1279.244h8.049c0-1.998-0.792-4.555-3.655-4.555
	c-2.845,0-4.411,1.943-4.411,4.915c0,2.989,2.017,4.573,4.411,4.501c2.413-0.072,3.457-1.944,3.583-2.61
	c-0.126,0.666-1.17,2.538-3.583,2.61c-2.395,0.072-4.411-1.512-4.411-4.501c0-2.972,1.566-4.915,4.411-4.915
	c2.863,0,3.655,2.557,3.655,4.555H223.602z"/>
<path fill="none" stroke="#000000" stroke-miterlimit="10" d="M240.218,1284.178c-1.513,0-4.124-0.252-4.124-4.771
	c0-4.502,2.917-4.555,4.195-4.555s2.971,0.99,3.079,2.25c-0.108-1.26-1.801-2.25-3.079-2.25s-4.195,0.053-4.195,4.555
	C236.094,1283.926,238.705,1284.178,240.218,1284.178c1.53,0,3.151-1.422,3.205-2.936
	C243.369,1282.756,241.748,1284.178,240.218,1284.178z"/>
<path fill="none" stroke="#000000" stroke-miterlimit="10" d="M247.65,1274.852h3.763H247.65z M251.377,1284.088
	c-0.882,0.054-1.837,0.09-1.837-1.117c0-1.224,0-11.523,0-11.523s0,10.3,0,11.523
	C249.541,1284.178,250.495,1284.142,251.377,1284.088z"/>
<path fill="none" stroke="#000000" stroke-miterlimit="10" d="M255.462,1279.461c0-3.638,1.854-4.7,4.087-4.7
	c2.251,0,4.087,1.062,4.087,4.7c0,3.654-1.836,4.717-4.087,4.717C257.317,1284.178,255.462,1283.115,255.462,1279.461z
	 M255.462,1279.461c0-3.638,1.854-4.7,4.087-4.7c2.251,0,4.087,1.062,4.087,4.7c0,3.654-1.836,4.717-4.087,4.717
	C257.317,1284.178,255.462,1283.115,255.462,1279.461z"/>
<path fill="none" stroke="#000000" stroke-miterlimit="10" d="M269.917,1279.461c-0.054-2.071,1.854-4.538,3.529-4.52
	C271.771,1274.923,269.862,1277.39,269.917,1279.461z M269.917,1284.178v-9.236V1284.178z"/>
<path fill="none" stroke="#000000" stroke-miterlimit="10" d="M290.707,1284.178c-1.513,0-4.124-0.252-4.124-4.771
	c0-4.502,2.917-4.555,4.195-4.555s2.971,0.99,3.079,2.25c-0.108-1.26-1.801-2.25-3.079-2.25s-4.195,0.053-4.195,4.555
	C286.583,1283.926,289.194,1284.178,290.707,1284.178c1.53,0,3.151-1.422,3.205-2.936
	C293.858,1282.756,292.237,1284.178,290.707,1284.178z"/>
<path fill="none" stroke="#000000" stroke-miterlimit="10" d="M299.058,1274.904c0,0,0,6.032,0,6.861
	c0,0.828,0.828,2.376,3.115,2.395c2.305,0.018,3.529-1.766,3.529-3.422c0,1.656-1.225,3.439-3.529,3.422
	c-2.287-0.019-3.115-1.566-3.115-2.395C299.058,1280.937,299.058,1274.904,299.058,1274.904z M305.702,1274.904v9.256V1274.904z"/>
<path fill="none" stroke="#000000" stroke-miterlimit="10" d="M311.982,1274.852h3.763H311.982z M315.709,1284.088
	c-0.882,0.054-1.837,0.09-1.837-1.117c0-1.224,0-11.523,0-11.523s0,10.3,0,11.523
	C313.872,1284.178,314.827,1284.142,315.709,1284.088z"/>
<text transform="matrix(1 0 0 1 133.3325 1373.3223)"><tspan x="0" y="0" fill="none" stroke="#000000" stroke-miterlimit="10" font-family="'Eng_HelvLine'" font-size="18">B.O.M.</tspan><tspan x="0" y="64.801" fill="none" stroke="#000000" stroke-miterlimit="10" font-family="'Eng_HelvLine'" font-size="18">For more information see https://github.com/gndelec/novena-rf-case</tspan></text>
<rect x="124.668" y="107.564" fill="none" stroke="#F47920" stroke-miterlimit="10" width="425.196" height="342.992"/>
<circle fill="none" stroke="#000000" stroke-miterlimit="10" cx="133.171" cy="116.493" r="4.252"/>
<circle fill="none" stroke="#000000" stroke-miterlimit="10" cx="133.171" cy="269.564" r="4.252"/>
<circle fill="none" stroke="#000000" stroke-miterlimit="10" cx="133.171" cy="167.518" r="4.252"/>
<circle fill="none" stroke="#000000" stroke-miterlimit="10" cx="175.69" cy="174.604" r="4.252"/>
<circle fill="none" stroke="#000000" stroke-miterlimit="10" cx="541.362" cy="116.493" r="4.252"/>
<circle fill="none" stroke="#000000" stroke-miterlimit="10" cx="133.171" cy="441.628" r="4.252"/>
<circle fill="none" stroke="#000000" stroke-miterlimit="10" cx="541.363" cy="441.628" r="4.252"/>
<circle fill="none" stroke="#000000" stroke-miterlimit="10" cx="342.935" cy="349.928" r="4.252"/>
<circle fill="none" stroke="#000000" stroke-miterlimit="10" cx="541.363" cy="316.903" r="4.252"/>
<circle fill="none" stroke="#000000" stroke-miterlimit="10" cx="464.828" cy="316.903" r="4.252"/>
<circle fill="none" stroke="#000000" stroke-miterlimit="10" cx="418.055" cy="276.228" r="4.252"/>
<rect x="362.779" y="454.809" fill="none" stroke="#F47920" stroke-miterlimit="10" width="195.591" height="283.463"/>
<path fill="none" stroke="#000000" stroke-miterlimit="10" d="M1111.125,801.625c0,7.828-6.345,14.174-14.173,14.174l-476.22,0.002
	c-7.827,0-14.173-6.346-14.173-14.174l0-702.993c0-7.828,6.346-14.174,14.173-14.174h476.219c7.828,0,14.174,6.346,14.174,14.173
	V801.625z"/>
<g>
	<circle fill="none" stroke="#000000" stroke-miterlimit="10" cx="117.581" cy="774.986" r="4.252"/>
	<circle fill="none" stroke="#000000" stroke-miterlimit="10" cx="202.621" cy="774.986" r="4.252"/>
	<circle fill="none" stroke="#000000" stroke-miterlimit="10" cx="287.661" cy="774.986" r="4.252"/>
	<circle fill="none" stroke="#000000" stroke-miterlimit="10" cx="372.701" cy="774.986" r="4.252"/>
	<circle fill="none" stroke="#000000" stroke-miterlimit="10" cx="457.741" cy="774.986" r="4.252"/>
	<circle fill="none" stroke="#000000" stroke-miterlimit="10" cx="542.781" cy="774.986" r="4.252"/>
</g>
<circle fill="none" stroke="#000000" stroke-miterlimit="10" cx="160.1" cy="732.464" r="4.252"/>
<circle fill="none" stroke="#000000" stroke-miterlimit="10" cx="245.14" cy="732.464" r="4.252"/>
<circle fill="none" stroke="#000000" stroke-miterlimit="10" cx="330.18" cy="732.464" r="4.252"/>
<circle fill="none" stroke="#000000" stroke-miterlimit="10" cx="415.22" cy="732.464" r="4.252"/>
<circle fill="none" stroke="#000000" stroke-miterlimit="10" cx="500.26" cy="732.464" r="4.252"/>
<circle fill="none" stroke="#000000" stroke-miterlimit="10" cx="160.1" cy="647.424" r="4.252"/>
<circle fill="none" stroke="#000000" stroke-miterlimit="10" cx="245.14" cy="647.424" r="4.252"/>
<circle fill="none" stroke="#000000" stroke-miterlimit="10" cx="330.18" cy="647.424" r="4.252"/>
<circle fill="none" stroke="#000000" stroke-miterlimit="10" cx="415.22" cy="647.424" r="4.252"/>
<circle fill="none" stroke="#000000" stroke-miterlimit="10" cx="500.26" cy="647.424" r="4.252"/>
<circle fill="none" stroke="#000000" stroke-miterlimit="10" cx="160.1" cy="562.384" r="4.252"/>
<circle fill="none" stroke="#000000" stroke-miterlimit="10" cx="245.14" cy="562.384" r="4.252"/>
<circle fill="none" stroke="#000000" stroke-miterlimit="10" cx="330.18" cy="562.384" r="4.252"/>
<circle fill="none" stroke="#000000" stroke-miterlimit="10" cx="415.22" cy="562.384" r="4.252"/>
<circle fill="none" stroke="#000000" stroke-miterlimit="10" cx="500.26" cy="562.384" r="4.252"/>
<circle fill="none" stroke="#000000" stroke-miterlimit="10" cx="160.1" cy="477.344" r="4.252"/>
<circle fill="none" stroke="#000000" stroke-miterlimit="10" cx="245.14" cy="477.344" r="4.252"/>
<circle fill="none" stroke="#000000" stroke-miterlimit="10" cx="330.18" cy="477.344" r="4.252"/>
<circle fill="none" stroke="#000000" stroke-miterlimit="10" cx="415.22" cy="477.344" r="4.252"/>
<circle fill="none" stroke="#000000" stroke-miterlimit="10" cx="500.26" cy="477.344" r="4.252"/>
<g>
	<circle fill="none" stroke="#000000" stroke-miterlimit="10" cx="117.581" cy="689.946" r="4.252"/>
	<circle fill="none" stroke="#000000" stroke-miterlimit="10" cx="202.621" cy="689.946" r="4.252"/>
	<circle fill="none" stroke="#000000" stroke-miterlimit="10" cx="287.661" cy="689.946" r="4.252"/>
	<circle fill="none" stroke="#000000" stroke-miterlimit="10" cx="372.701" cy="689.946" r="4.252"/>
	<circle fill="none" stroke="#000000" stroke-miterlimit="10" cx="457.741" cy="689.946" r="4.252"/>
	<circle fill="none" stroke="#000000" stroke-miterlimit="10" cx="542.781" cy="689.946" r="4.252"/>
</g>
<g>
	<circle fill="none" stroke="#000000" stroke-miterlimit="10" cx="117.581" cy="604.906" r="4.252"/>
	<circle fill="none" stroke="#000000" stroke-miterlimit="10" cx="202.621" cy="604.906" r="4.252"/>
	<circle fill="none" stroke="#000000" stroke-miterlimit="10" cx="287.661" cy="604.906" r="4.252"/>
	<circle fill="none" stroke="#000000" stroke-miterlimit="10" cx="372.701" cy="604.906" r="4.252"/>
	<circle fill="none" stroke="#000000" stroke-miterlimit="10" cx="457.741" cy="604.906" r="4.252"/>
	<circle fill="none" stroke="#000000" stroke-miterlimit="10" cx="542.781" cy="604.906" r="4.252"/>
</g>
<g>
	<circle fill="none" stroke="#000000" stroke-miterlimit="10" cx="117.581" cy="519.866" r="4.252"/>
	<circle fill="none" stroke="#000000" stroke-miterlimit="10" cx="202.621" cy="519.866" r="4.252"/>
	<circle fill="none" stroke="#000000" stroke-miterlimit="10" cx="287.661" cy="519.866" r="4.252"/>
	<circle fill="none" stroke="#000000" stroke-miterlimit="10" cx="372.701" cy="519.866" r="4.252"/>
	<circle fill="none" stroke="#000000" stroke-miterlimit="10" cx="457.741" cy="519.866" r="4.252"/>
	<circle fill="none" stroke="#000000" stroke-miterlimit="10" cx="542.781" cy="519.866" r="4.252"/>
</g>
<rect x="353.425" y="524.684" fill="none" stroke="#000000" stroke-miterlimit="10" width="9.638" height="18.142"/>
<rect x="353.425" y="467.991" fill="none" stroke="#000000" stroke-miterlimit="10" width="9.638" height="18.142"/>
<rect x="353.425" y="581.377" fill="none" stroke="#000000" stroke-miterlimit="10" width="9.638" height="18.142"/>
<rect x="353.425" y="638.071" fill="none" stroke="#000000" stroke-miterlimit="10" width="9.638" height="18.142"/>
<rect x="353.425" y="694.764" fill="none" stroke="#000000" stroke-miterlimit="10" width="9.638" height="18.142"/>
<rect x="353.425" y="751.458" fill="none" stroke="#000000" stroke-miterlimit="10" width="9.638" height="18.142"/>
<rect x="559.225" y="751.458" fill="none" stroke="#000000" stroke-miterlimit="10" width="9.638" height="18.143"/>
<rect x="559.225" y="694.765" fill="none" stroke="#000000" stroke-miterlimit="10" width="9.638" height="18.143"/>
<rect x="559.225" y="638.072" fill="none" stroke="#000000" stroke-miterlimit="10" width="9.638" height="18.143"/>
<rect x="559.225" y="581.378" fill="none" stroke="#000000" stroke-miterlimit="10" width="9.638" height="18.143"/>
<rect x="559.225" y="524.685" fill="none" stroke="#000000" stroke-miterlimit="10" width="9.638" height="18.143"/>
<rect x="559.225" y="467.992" fill="none" stroke="#000000" stroke-miterlimit="10" width="9.638" height="18.143"/>
<rect x="559.225" y="411.298" fill="none" stroke="#000000" stroke-miterlimit="10" width="9.638" height="18.143"/>
<rect x="559.225" y="354.605" fill="none" stroke="#000000" stroke-miterlimit="10" width="9.638" height="18.143"/>
<rect x="559.225" y="297.912" fill="none" stroke="#000000" stroke-miterlimit="10" width="9.638" height="18.143"/>
<rect x="559.225" y="241.218" fill="none" stroke="#000000" stroke-miterlimit="10" width="9.638" height="18.143"/>
<rect x="559.225" y="184.525" fill="none" stroke="#000000" stroke-miterlimit="10" width="9.638" height="18.143"/>
<rect x="559.225" y="127.832" fill="none" stroke="#000000" stroke-miterlimit="10" width="9.638" height="18.143"/>
<rect x="1087.888" y="469.41" fill="none" stroke="#000000" stroke-miterlimit="10" width="9.638" height="18.142"/>
<rect x="1087.888" y="526.103" fill="none" stroke="#000000" stroke-miterlimit="10" width="9.638" height="18.142"/>
<rect x="1087.888" y="582.796" fill="none" stroke="#000000" stroke-miterlimit="10" width="9.638" height="18.142"/>
<rect x="1087.888" y="639.49" fill="none" stroke="#000000" stroke-miterlimit="10" width="9.638" height="18.142"/>
<rect x="1087.888" y="696.183" fill="none" stroke="#000000" stroke-miterlimit="10" width="9.638" height="18.142"/>
<rect x="1087.888" y="752.876" fill="none" stroke="#000000" stroke-miterlimit="10" width="9.638" height="18.142"/>
<rect x="882.088" y="469.409" fill="none" stroke="#000000" stroke-miterlimit="10" width="9.638" height="18.142"/>
<rect x="882.088" y="526.102" fill="none" stroke="#000000" stroke-miterlimit="10" width="9.638" height="18.142"/>
<rect x="882.088" y="582.795" fill="none" stroke="#000000" stroke-miterlimit="10" width="9.638" height="18.142"/>
<rect x="882.088" y="639.489" fill="none" stroke="#000000" stroke-miterlimit="10" width="9.638" height="18.142"/>
<rect x="882.088" y="696.182" fill="none" stroke="#000000" stroke-miterlimit="10" width="9.638" height="18.142"/>
<rect x="882.088" y="752.875" fill="none" stroke="#000000" stroke-miterlimit="10" width="9.638" height="18.142"/>
<rect x="92.354" y="127.832" fill="none" stroke="#000000" stroke-miterlimit="10" width="9.071" height="18.142"/>
<rect x="92.355" y="184.525" fill="none" stroke="#000000" stroke-miterlimit="10" width="9.071" height="18.142"/>
<rect x="92.355" y="241.218" fill="none" stroke="#000000" stroke-miterlimit="10" width="9.071" height="18.142"/>
<rect x="92.355" y="297.912" fill="none" stroke="#000000" stroke-miterlimit="10" width="9.071" height="18.142"/>
<rect x="92.355" y="354.605" fill="none" stroke="#000000" stroke-miterlimit="10" width="9.071" height="18.142"/>
<rect x="92.355" y="411.298" fill="none" stroke="#000000" stroke-miterlimit="10" width="9.071" height="18.142"/>
<rect x="92.355" y="467.992" fill="none" stroke="#000000" stroke-miterlimit="10" width="9.071" height="18.142"/>
<rect x="92.355" y="524.685" fill="none" stroke="#000000" stroke-miterlimit="10" width="9.071" height="18.141"/>
<rect x="92.355" y="581.377" fill="none" stroke="#000000" stroke-miterlimit="10" width="9.071" height="18.142"/>
<rect x="92.355" y="638.071" fill="none" stroke="#000000" stroke-miterlimit="10" width="9.071" height="18.144"/>
<rect x="92.355" y="694.765" fill="none" stroke="#000000" stroke-miterlimit="10" width="9.071" height="18.143"/>
<rect x="92.355" y="751.458" fill="none" stroke="#000000" stroke-miterlimit="10" width="9.071" height="18.143"/>
<rect x="462.843" y="791.142" fill="none" stroke="#000000" stroke-miterlimit="10" width="18.142" height="9.07"/>
<rect x="519.537" y="791.142" fill="none" stroke="#000000" stroke-miterlimit="10" width="18.142" height="9.07"/>
<rect x="406.15" y="791.142" fill="none" stroke="#000000" stroke-miterlimit="10" width="18.142" height="9.07"/>
<rect x="349.457" y="791.142" fill="none" stroke="#000000" stroke-miterlimit="10" width="18.142" height="9.07"/>
<rect x="292.764" y="791.142" fill="none" stroke="#000000" stroke-miterlimit="10" width="18.142" height="9.07"/>
<rect x="236.07" y="791.142" fill="none" stroke="#000000" stroke-miterlimit="10" width="18.142" height="9.072"/>
<rect x="179.376" y="791.142" fill="none" stroke="#000000" stroke-miterlimit="10" width="18.142" height="9.072"/>
<rect x="122.683" y="791.142" fill="none" stroke="#000000" stroke-miterlimit="10" width="18.142" height="9.072"/>
<rect x="462.843" y="97.218" fill="none" stroke="#000000" stroke-miterlimit="10" width="18.142" height="9.07"/>
<rect x="519.537" y="97.218" fill="none" stroke="#000000" stroke-miterlimit="10" width="18.142" height="9.07"/>
<rect x="292.763" y="97.218" fill="none" stroke="#000000" stroke-miterlimit="10" width="18.142" height="9.071"/>
<rect x="236.07" y="97.218" fill="none" stroke="#000000" stroke-miterlimit="10" width="18.142" height="9.071"/>
<rect x="179.376" y="97.218" fill="none" stroke="#000000" stroke-miterlimit="10" width="18.142" height="9.071"/>
<rect x="122.683" y="97.218" fill="none" stroke="#000000" stroke-miterlimit="10" width="18.142" height="9.071"/>
<polygon fill="none" stroke="#000000" stroke-miterlimit="10" points="1236.07,188.35 1236.07,170.209 1227.568,170.209 
	1227.568,156.605 1128.354,156.605 1128.354,170.209 1119.848,170.209 1119.848,188.35 1128.354,188.35 1128.354,226.902 
	1119.848,226.902 1119.848,245.043 1128.354,245.043 1128.354,283.596 1119.848,283.596 1119.848,301.736 1128.354,301.736 
	1128.354,340.289 1119.848,340.289 1119.848,358.43 1128.354,358.43 1128.354,396.982 1119.848,396.982 1119.848,415.123 
	1128.354,415.123 1128.354,453.676 1119.848,453.676 1119.848,471.817 1128.354,471.817 1128.354,510.37 1119.848,510.37 
	1119.848,528.51 1128.354,528.51 1128.354,567.061 1119.848,567.061 1119.848,585.204 1128.354,585.204 1128.354,623.754 
	1119.848,623.754 1119.848,641.897 1128.354,641.897 1128.354,680.45 1119.848,680.45 1119.848,698.59 1128.354,698.59 
	1128.354,737.143 1119.848,737.143 1119.848,755.284 1128.354,755.284 1128.354,793.836 1119.848,793.836 1119.848,811.977 
	1128.354,811.977 1128.354,825.582 1227.568,825.582 1227.568,811.977 1236.07,811.977 1236.07,793.836 1227.568,793.836 
	1227.568,755.284 1236.07,755.284 1236.07,737.143 1227.568,737.143 1227.568,698.59 1236.07,698.59 1236.07,680.45 
	1227.568,680.45 1227.568,641.897 1236.07,641.897 1236.07,623.754 1227.568,623.754 1227.568,585.204 1236.07,585.204 
	1236.07,567.061 1227.568,567.061 1227.568,528.51 1236.07,528.51 1236.07,510.37 1227.568,510.37 1227.568,471.817 
	1236.07,471.817 1236.07,453.676 1227.568,453.676 1227.568,415.123 1236.07,415.123 1236.07,396.982 1227.568,396.982 
	1227.568,358.43 1236.07,358.43 1236.07,340.289 1227.568,340.289 1227.568,301.736 1236.07,301.736 1236.07,283.596 
	1227.568,283.596 1227.568,245.043 1236.07,245.043 1236.07,226.902 1227.568,226.902 1227.568,188.35 "/>
<polygon fill="none" stroke="#000000" stroke-miterlimit="10" points="1592.57,166.239 1592.57,148.098 1584.068,148.098 
	1584.068,134.494 1484.854,134.494 1484.854,148.098 1476.348,148.098 1476.348,166.239 1484.854,166.239 1484.854,204.792 
	1476.348,204.792 1476.348,222.932 1484.854,222.932 1484.854,261.485 1476.348,261.485 1476.348,279.625 1484.854,279.625 
	1484.854,318.178 1476.348,318.178 1476.348,336.319 1484.854,336.319 1484.854,374.872 1476.348,374.872 1476.348,393.012 
	1484.854,393.012 1484.854,431.565 1476.348,431.565 1476.348,449.706 1484.854,449.706 1484.854,488.258 1476.348,488.258 
	1476.348,506.4 1484.854,506.4 1484.854,544.951 1476.348,544.951 1476.348,563.092 1484.854,563.092 1484.854,601.644 
	1476.348,601.644 1476.348,619.786 1484.854,619.786 1484.854,658.334 1476.348,658.334 1476.348,676.475 1484.854,676.475 
	1484.854,715.026 1476.348,715.026 1476.348,733.168 1484.854,733.168 1484.854,771.719 1476.348,771.719 1476.348,789.862 
	1484.854,789.862 1484.854,803.464 1584.068,803.464 1584.068,789.862 1592.57,789.862 1592.57,771.719 1584.068,771.719 
	1584.068,733.168 1592.57,733.168 1592.57,715.026 1584.068,715.026 1584.068,676.475 1592.57,676.475 1592.57,658.334 
	1584.068,658.334 1584.068,619.786 1592.57,619.786 1592.57,601.644 1584.068,601.644 1584.068,563.092 1592.57,563.092 
	1592.57,544.951 1584.068,544.951 1584.068,506.4 1592.57,506.4 1592.57,488.258 1584.068,488.258 1584.068,449.706 
	1592.57,449.706 1592.57,431.565 1584.068,431.565 1584.068,393.012 1592.57,393.012 1592.57,374.872 1584.068,374.872 
	1584.068,336.319 1592.57,336.319 1592.57,318.178 1584.068,318.178 1584.068,279.625 1592.57,279.625 1592.57,261.485 
	1584.068,261.485 1584.068,222.932 1592.57,222.932 1592.57,204.792 1584.068,204.792 1584.068,166.239 "/>
<circle fill="none" stroke="#000000" stroke-miterlimit="10" cx="565.455" cy="797.376" r="4.252"/>
<circle fill="none" stroke="#000000" stroke-miterlimit="10" cx="94.905" cy="797.378" r="4.252"/>
<circle fill="none" stroke="#000000" stroke-miterlimit="10" cx="565.455" cy="100.046" r="4.252"/>
<circle fill="none" stroke="#000000" stroke-miterlimit="10" cx="94.904" cy="100.047" r="4.252"/>
<rect x="1088.17" y="129.249" fill="none" stroke="#000000" stroke-miterlimit="10" width="9.072" height="18.141"/>
<rect x="1088.17" y="185.942" fill="none" stroke="#000000" stroke-miterlimit="10" width="9.072" height="18.141"/>
<rect x="1088.17" y="242.636" fill="none" stroke="#000000" stroke-miterlimit="10" width="9.072" height="18.141"/>
<rect x="1088.17" y="299.329" fill="none" stroke="#000000" stroke-miterlimit="10" width="9.072" height="18.141"/>
<rect x="1088.17" y="356.022" fill="none" stroke="#000000" stroke-miterlimit="10" width="9.072" height="18.141"/>
<rect x="1088.17" y="412.716" fill="none" stroke="#000000" stroke-miterlimit="10" width="9.072" height="18.141"/>
<rect x="621.018" y="129.249" fill="none" stroke="#000000" stroke-miterlimit="10" width="9.07" height="18.141"/>
<rect x="621.018" y="185.942" fill="none" stroke="#000000" stroke-miterlimit="10" width="9.07" height="18.141"/>
<rect x="621.018" y="242.636" fill="none" stroke="#000000" stroke-miterlimit="10" width="9.07" height="18.141"/>
<rect x="621.018" y="299.329" fill="none" stroke="#000000" stroke-miterlimit="10" width="9.07" height="18.141"/>
<rect x="621.018" y="356.022" fill="none" stroke="#000000" stroke-miterlimit="10" width="9.07" height="18.141"/>
<rect x="621.018" y="412.716" fill="none" stroke="#000000" stroke-miterlimit="10" width="9.07" height="18.141"/>
<rect x="621.018" y="469.409" fill="none" stroke="#000000" stroke-miterlimit="10" width="9.07" height="18.143"/>
<rect x="621.018" y="526.102" fill="none" stroke="#000000" stroke-miterlimit="10" width="9.07" height="18.141"/>
<rect x="621.018" y="582.795" fill="none" stroke="#000000" stroke-miterlimit="10" width="9.07" height="18.141"/>
<rect x="621.018" y="639.489" fill="none" stroke="#000000" stroke-miterlimit="10" width="9.07" height="18.141"/>
<rect x="621.018" y="696.182" fill="none" stroke="#000000" stroke-miterlimit="10" width="9.07" height="18.141"/>
<rect x="621.018" y="752.875" fill="none" stroke="#000000" stroke-miterlimit="10" width="9.07" height="18.141"/>
<rect x="991.506" y="792.559" fill="none" stroke="#000000" stroke-miterlimit="10" width="18.141" height="9.07"/>
<rect x="1048.2" y="792.559" fill="none" stroke="#000000" stroke-miterlimit="10" width="18.141" height="9.07"/>
<rect x="934.813" y="792.559" fill="none" stroke="#000000" stroke-miterlimit="10" width="18.141" height="9.07"/>
<rect x="878.119" y="792.559" fill="none" stroke="#000000" stroke-miterlimit="10" width="18.141" height="9.07"/>
<rect x="821.426" y="792.559" fill="none" stroke="#000000" stroke-miterlimit="10" width="18.141" height="9.07"/>
<rect x="764.732" y="792.559" fill="none" stroke="#000000" stroke-miterlimit="10" width="18.141" height="9.07"/>
<rect x="708.039" y="792.559" fill="none" stroke="#000000" stroke-miterlimit="10" width="18.141" height="9.07"/>
<rect x="651.346" y="792.559" fill="none" stroke="#000000" stroke-miterlimit="10" width="18.141" height="9.07"/>
<rect x="991.506" y="98.636" fill="none" stroke="#000000" stroke-miterlimit="10" width="18.141" height="9.07"/>
<rect x="1048.2" y="98.636" fill="none" stroke="#000000" stroke-miterlimit="10" width="18.141" height="9.07"/>
<rect x="821.426" y="98.636" fill="none" stroke="#000000" stroke-miterlimit="10" width="18.141" height="9.07"/>
<rect x="878.119" y="98.636" fill="none" stroke="#000000" stroke-miterlimit="10" width="18.141" height="9.07"/>
<rect x="934.812" y="98.636" fill="none" stroke="#000000" stroke-miterlimit="10" width="18.141" height="9.07"/>
<rect x="764.732" y="98.636" fill="none" stroke="#000000" stroke-miterlimit="10" width="18.141" height="9.07"/>
<rect x="708.039" y="98.636" fill="none" stroke="#000000" stroke-miterlimit="10" width="18.141" height="9.07"/>
<rect x="651.346" y="98.636" fill="none" stroke="#000000" stroke-miterlimit="10" width="18.141" height="9.07"/>
<circle fill="none" stroke="#000000" stroke-miterlimit="10" cx="1094.118" cy="798.793" r="4.252"/>
<circle fill="none" stroke="#000000" stroke-miterlimit="10" cx="623.566" cy="798.793" r="4.252"/>
<circle fill="none" stroke="#000000" stroke-miterlimit="10" cx="1094.118" cy="101.464" r="4.252"/>
<circle fill="none" stroke="#000000" stroke-miterlimit="10" cx="623.566" cy="101.464" r="4.252"/>
<polygon fill="none" stroke="#000000" stroke-miterlimit="10" points="1467.854,718.712 1467.854,705.108 1476.355,705.108 
	1476.355,686.967 1467.854,686.967 1467.854,648.415 1476.355,648.415 1476.355,630.274 1467.854,630.274 1467.854,591.721 
	1476.355,591.721 1476.355,573.581 1467.854,573.581 1467.854,535.028 1476.355,535.028 1476.355,516.885 1467.854,516.885 
	1467.854,478.334 1476.355,478.334 1476.355,460.192 1467.854,460.192 1467.854,421.641 1476.355,421.641 1476.355,403.499 
	1467.854,403.499 1467.854,364.948 1476.355,364.948 1476.355,346.805 1467.854,346.805 1467.854,308.254 1476.355,308.254 
	1476.355,290.112 1467.854,290.112 1467.854,276.507 1368.641,276.507 1368.641,290.112 1360.135,290.112 1360.135,308.254 
	1368.641,308.254 1368.641,346.805 1360.135,346.805 1360.135,364.948 1368.641,364.948 1368.641,403.499 1360.135,403.499 
	1360.135,421.641 1368.641,421.641 1368.641,460.192 1360.135,460.192 1360.135,478.334 1368.641,478.334 1368.641,516.885 
	1360.135,516.885 1360.135,535.028 1368.641,535.028 1368.641,573.581 1360.135,573.581 1360.135,591.721 1368.641,591.721 
	1368.641,630.274 1360.135,630.274 1360.135,648.415 1368.641,648.415 1368.641,686.967 1360.135,686.967 1360.135,705.108 
	1368.641,705.108 1368.641,718.712 "/>
<path fill="none" stroke="#000000" stroke-miterlimit="10" d="M1172.291,535.029c0,2.349-1.902,4.252-4.252,4.252h-14.172
	c-2.348,0-4.252-1.903-4.252-4.252l0,0c0-2.348,1.904-4.252,4.252-4.252h14.172C1170.389,530.777,1172.291,532.681,1172.291,535.029
	L1172.291,535.029z"/>
<path fill="none" stroke="#000000" stroke-miterlimit="10" d="M1172.291,751.879c0,2.348-1.902,4.252-4.252,4.252h-14.172
	c-2.348,0-4.252-1.904-4.252-4.252l0,0c0-2.35,1.904-4.252,4.252-4.252h14.172C1170.389,747.627,1172.291,749.53,1172.291,751.879
	L1172.291,751.879z"/>
<polygon fill="none" stroke="#000000" stroke-miterlimit="10" points="1346.621,530.209 1247.408,530.209 1247.408,538.713 
	1238.902,538.713 1238.902,556.854 1247.408,556.854 1247.408,595.407 1238.902,595.407 1238.902,613.547 1247.408,613.547 
	1247.408,652.101 1238.902,652.101 1238.902,670.246 1247.408,670.246 1247.408,708.798 1238.902,708.798 1238.902,726.941 
	1247.408,726.941 1247.408,765.494 1238.902,765.494 1238.902,783.634 1247.408,783.634 1247.408,822.187 1238.902,822.187 
	1238.902,840.328 1247.408,840.328 1247.408,848.263 1346.621,848.263 1346.621,840.328 1355.123,840.328 1355.123,822.187 
	1346.621,822.187 1346.621,783.634 1355.123,783.634 1355.123,765.494 1346.621,765.494 1346.621,726.941 1355.123,726.941 
	1355.123,708.798 1346.621,708.798 1346.621,670.246 1355.123,670.246 1355.123,652.101 1346.621,652.101 1346.621,613.547 
	1355.123,613.547 1355.123,595.407 1346.621,595.407 1346.621,556.854 1355.123,556.854 1355.123,538.713 1346.621,538.713 "/>
<path fill="none" stroke="#000000" stroke-miterlimit="10" d="M1291.344,563.374c0,2.349-1.904,4.252-4.252,4.252h-14.172
	c-2.35,0-4.252-1.903-4.252-4.252l0,0c0-2.348,1.902-4.252,4.252-4.252h14.172C1289.439,559.122,1291.344,561.026,1291.344,563.374
	L1291.344,563.374z"/>
<path fill="none" stroke="#000000" stroke-miterlimit="10" d="M1291.344,780.23c0,2.348-1.904,4.252-4.252,4.252h-14.172
	c-2.35,0-4.252-1.904-4.252-4.252l0,0c0-2.35,1.902-4.252,4.252-4.252h14.172C1289.439,775.978,1291.344,777.88,1291.344,780.23
	L1291.344,780.23z"/>
<circle fill="none" stroke="#000000" stroke-width="1.0001" stroke-linecap="round" stroke-linejoin="round" stroke-miterlimit="22.9256" cx="1418.245" cy="348.79" r="8.858"/>
<circle fill="none" stroke="#000000" stroke-width="1.0001" stroke-linecap="round" stroke-linejoin="round" stroke-miterlimit="22.9256" cx="1418.245" cy="419.657" r="8.858"/>
<path fill="none" stroke="#000000" stroke-miterlimit="10" d="M1347.828,507.678h8.502v-18.143h-8.502v-38.551h8.502v-18.142
	l-8.502-0.001v-38.551h8.502v-18.142h-8.502v-38.552h8.502v-18.142h-8.502v-38.552h8.502v-18.142h-8.502v-38.552h8.502v-18.142
	h-8.502v-38.552h8.502v-18.142h-8.502v-38.552h8.502V92.683l-8.502-0.001V79.077h-99.215v13.605h-8.504v18.143h8.504v38.551h-8.504
	v18.143h8.504v24.941l0,0v8.504l39.756,0.001v121.893l14.096,14.095v48.825h-42.52v-54.729v-52.129v-4.183h-19.836v1.349v2.834
	v1.985h8.504v38.552h-8.504v18.142h8.504v38.551h-8.504v18.143h8.504v38.551h-8.504v18.143h8.504v38.551h-8.504v18.143h8.504v13.603
	h99.215V507.678z M1259.945,192.459V91.832h28.424V192.46L1259.945,192.459z M1259.945,483.014v-89.868h42.52l-0.002,89.868
	H1259.945z"/>
<path fill="none" stroke="#000000" stroke-miterlimit="10" d="M770.961,454.81v-11.34c0-7.828-6.346-14.174-14.172-14.174v0.002
	c-7.828,0-14.174-6.346-14.174-14.173l0,0c0-7.827-6.346-14.173-14.174-14.173h-42.52c-7.826,0-14.172,6.346-14.172,14.173v36.85
	c0,7.827,6.346,14.173,14.172,14.173h70.867C764.615,466.148,770.961,462.637,770.961,454.81z"/>
<path fill="none" stroke="#000000" stroke-miterlimit="10" d="M568.292,83.047H443.497l0.002-0.002
	c-7.828,0-14.174,6.346-14.174,14.173c0,7.828-6.346,14.174-14.172,14.174h-45.355c-4.376,0-8.286-1.985-10.886-5.102h-9.454v-9.07
	h6.167c0,0,0-0.001,0-0.002c0-7.827-6.344-14.173-14.172-14.173v0.002H92.07c-7.826,0-14.172,6.346-14.172,14.173v702.994
	c0,7.828,6.346,14.174,14.172,14.174l476.221-0.002c7.828,0,14.172-6.346,14.172-14.174V97.22
	C582.463,89.393,576.12,83.047,568.292,83.047z"/>
<rect x="148.759" y="107.562" fill="none" stroke="#F47920" stroke-miterlimit="10" width="25.512" height="39.685"/>
<rect x="187.029" y="107.562" fill="none" stroke="#F47920" stroke-miterlimit="10" width="48.188" height="68.032"/>
<rect x="243.722" y="107.562" fill="none" stroke="#F47920" stroke-miterlimit="10" width="48.188" height="68.032"/>
<rect x="306.084" y="107.561" fill="none" stroke="#F47920" stroke-miterlimit="10" width="42.52" height="31.181"/>
<rect x="359.94" y="107.562" fill="none" stroke="#F47920" stroke-miterlimit="10" width="22.677" height="14.173"/>
<rect x="399.625" y="107.561" fill="none" stroke="#F47920" stroke-miterlimit="10" width="19.843" height="48.189"/>
<rect x="444.981" y="107.561" fill="none" stroke="#F47920" stroke-miterlimit="10" width="36.851" height="39.685"/>
<rect x="496.006" y="107.561" fill="none" stroke="#F47920" stroke-miterlimit="10" width="36.851" height="39.685"/>
<path fill="none" stroke="#000000" stroke-miterlimit="10" d="M888.606,451.972v-8.503l0,0c0-7.827,6.346-14.173,14.172-14.173
	h28.347c7.826,0,14.172,6.346,14.172,14.173l0,0v8.503c0,7.828-6.346,14.174-14.172,14.174h-28.347
	C894.952,466.146,888.606,459.8,888.606,451.972z"/>
<g>
	<path fill="none" stroke="#98258F" stroke-width="0.2835" stroke-miterlimit="10" d="M1329.611,452.682v2.723
		c0,2.711-1.152,4.75-4.391,4.75c-3.334,0-4.484-2.075-4.484-4.75v-2.723H1329.611z M1322.318,455.536
		c0,1.932,0.865,2.663,2.879,2.663c1.895,0,2.783-0.744,2.783-2.687v-0.888h-5.662V455.536z"/>
	<path fill="none" stroke="#98258F" stroke-width="0.2835" stroke-miterlimit="10" d="M1325.186,461.143
		c3.082,0,4.594,1.786,4.594,4.029c0,2.243-1.199,3.213-2.795,3.598l-0.539-1.848c1.02-0.287,1.715-0.719,1.715-1.762
		c0-1.344-1.139-2.063-2.975-2.063c-1.871,0-3.047,0.744-3.047,2.087c0,1.044,0.66,1.559,1.871,1.872l-0.408,1.834
		c-1.785-0.432-3.033-1.486-3.033-3.717C1320.568,462.857,1322.055,461.143,1325.186,461.143z"/>
	<path fill="none" stroke="#98258F" stroke-width="0.2835" stroke-miterlimit="10" d="M1329.611,473.633v1.943h-8.875v-1.943
		H1329.611z"/>
	<path fill="none" stroke="#98258F" stroke-width="0.2835" stroke-miterlimit="10" d="M1329.611,477.497v1.955l-5.66,3.719v0.023
		h5.66v1.799h-8.875v-1.799l5.709-3.873v-0.023h-5.709v-1.801H1329.611z"/>
</g>
<g>
	<path fill="none" stroke="#98258F" stroke-width="0.2835" stroke-miterlimit="10" d="M1322.26,408.631v1.607h5.588
		c-0.227-0.432-0.408-1.067-0.408-1.583h1.596c0.023,0.684,0.205,1.235,0.576,1.631v1.835h-7.352v1.403h-1.523v-4.894H1322.26z"/>
	<path fill="none" stroke="#98258F" stroke-width="0.2835" stroke-miterlimit="10" d="M1325.174,414.103
		c2.77,0,4.605,1.367,4.605,3.694c0,2.339-1.836,3.682-4.605,3.682c-2.771,0-4.605-1.343-4.605-3.682
		C1320.568,415.47,1322.402,414.103,1325.174,414.103z M1325.174,419.548c2.027,0,3.047-0.636,3.047-1.751
		c0-1.151-1.02-1.751-3.047-1.751s-3.082,0.636-3.082,1.751C1322.092,418.937,1323.146,419.548,1325.174,419.548z"/>
	<path fill="none" stroke="#98258F" stroke-width="0.2835" stroke-miterlimit="10" d="M1325.174,422.454
		c2.77,0,4.605,1.367,4.605,3.694c0,2.339-1.836,3.682-4.605,3.682c-2.771,0-4.605-1.343-4.605-3.682
		C1320.568,423.821,1322.402,422.454,1325.174,422.454z M1325.174,427.899c2.027,0,3.047-0.636,3.047-1.751
		c0-1.151-1.02-1.751-3.047-1.751s-3.082,0.636-3.082,1.751C1322.092,427.288,1323.146,427.899,1325.174,427.899z"/>
</g>
<g>
	<path fill="none" stroke="#98258F" stroke-width="0.2835" stroke-miterlimit="10" d="M1322.26,347.761v1.607h5.588
		c-0.227-0.432-0.408-1.067-0.408-1.583h1.596c0.023,0.684,0.205,1.235,0.576,1.631v1.835h-7.352v1.403h-1.523v-4.894H1322.26z"/>
	<path fill="none" stroke="#98258F" stroke-width="0.2835" stroke-miterlimit="10" d="M1325.174,353.232
		c2.77,0,4.605,1.367,4.605,3.694c0,2.339-1.836,3.682-4.605,3.682c-2.771,0-4.605-1.343-4.605-3.682
		C1320.568,354.6,1322.402,353.232,1325.174,353.232z M1325.174,358.678c2.027,0,3.047-0.636,3.047-1.751
		c0-1.151-1.02-1.751-3.047-1.751s-3.082,0.636-3.082,1.751C1322.092,358.066,1323.146,358.678,1325.174,358.678z"/>
	<path fill="none" stroke="#98258F" stroke-width="0.2835" stroke-miterlimit="10" d="M1325.174,361.584
		c2.77,0,4.605,1.367,4.605,3.694c0,2.339-1.836,3.682-4.605,3.682c-2.771,0-4.605-1.343-4.605-3.682
		C1320.568,362.951,1322.402,361.584,1325.174,361.584z M1325.174,367.029c2.027,0,3.047-0.636,3.047-1.751
		c0-1.151-1.02-1.751-3.047-1.751s-3.082,0.636-3.082,1.751C1322.092,366.418,1323.146,367.029,1325.174,367.029z"/>
	<path fill="none" stroke="#98258F" stroke-width="0.2835" stroke-miterlimit="10" d="M1325.174,369.937
		c2.77,0,4.605,1.367,4.605,3.694c0,2.339-1.836,3.682-4.605,3.682c-2.771,0-4.605-1.343-4.605-3.682
		C1320.568,371.304,1322.402,369.937,1325.174,369.937z M1325.174,375.382c2.027,0,3.047-0.636,3.047-1.751
		c0-1.151-1.02-1.751-3.047-1.751s-3.082,0.636-3.082,1.751C1322.092,374.771,1323.146,375.382,1325.174,375.382z"/>
</g>
<g>
	<path fill="none" stroke="#98258F" stroke-width="0.2835" stroke-miterlimit="10" d="M1315.527,287.487v1.955h-3.441v3.49h3.441
		v1.955h-8.875v-1.955h3.791v-3.49h-3.791v-1.955H1315.527z"/>
	<path fill="none" stroke="#98258F" stroke-width="0.2835" stroke-miterlimit="10" d="M1315.527,296.715v2.723
		c0,2.711-1.15,4.75-4.389,4.75c-3.334,0-4.486-2.075-4.486-4.75v-2.723H1315.527z M1308.236,299.569
		c0,1.932,0.863,2.663,2.877,2.663c1.896,0,2.783-0.744,2.783-2.687v-0.888h-5.66V299.569z"/>
	<path fill="none" stroke="#98258F" stroke-width="0.2835" stroke-miterlimit="10" d="M1315.527,305.595v2.579l-6.523,1.979v0.024
		l6.523,1.847v2.639h-8.875v-1.883h6.057v-0.024c-0.768-0.132-1.33-0.3-1.979-0.491l-4.078-1.331v-1.728l4.078-1.319
		c0.672-0.204,1.055-0.323,2.074-0.516v-0.024h-6.152v-1.751H1315.527z"/>
	<path fill="none" stroke="#98258F" stroke-width="0.2835" stroke-miterlimit="10" d="M1315.527,316.588v1.942h-8.875v-1.942
		H1315.527z"/>
</g>
<g>
	<path fill="none" stroke="#98258F" stroke-width="0.2835" stroke-miterlimit="10" d="M1325.174,246.933
		c3.117,0,4.605,2.038,4.605,4.186c0,2.135-1.488,4.174-4.605,4.174c-3.119,0-4.605-2.039-4.605-4.174
		C1320.568,248.971,1322.055,246.933,1325.174,246.933z M1325.174,253.349c1.859,0,2.986-0.863,2.986-2.23
		c0-1.38-1.127-2.231-2.986-2.231s-3.035,0.852-3.035,2.231C1322.139,252.485,1323.314,253.349,1325.174,253.349z"/>
	<path fill="none" stroke="#98258F" stroke-width="0.2835" stroke-miterlimit="10" d="M1327.98,258.379v-2.639h1.631v7.244h-1.631
		v-2.65h-7.244v-1.955H1327.98z"/>
	<path fill="none" stroke="#98258F" stroke-width="0.2835" stroke-miterlimit="10" d="M1325.209,263.421
		c2.783,0,4.57,1.547,4.57,4.041c0,1.68-0.672,3.022-2.842,3.586l-0.492-1.787c1.234-0.371,1.715-0.935,1.715-1.811
		c0-0.72-0.42-2.062-2.914-2.062c-2.482,0-3.107,1.199-3.107,2.146c0,0.972,0.611,1.644,1.596,1.823v-1.548h1.451v3.406h-4.449
		v-1.57h1.223v-0.024c-0.527-0.192-1.391-0.972-1.391-2.314C1320.568,264.62,1322.535,263.421,1325.209,263.421z"/>
</g>
<g>
	<path fill="none" stroke="#98258F" stroke-width="0.2835" stroke-miterlimit="10" d="M1308.668,229.722l0.875,1.476
		c-0.971,0.491-1.512,1.379-1.512,2.398c0,0.899,0.336,1.547,1.02,1.547c0.672,0,0.961-0.636,1.283-1.799
		c0.445-1.583,0.852-3.238,2.711-3.238c1.654,0,2.65,1.296,2.65,3.202c0,1.823-0.875,2.902-1.822,3.526l-1.031-1.355
		c0.756-0.468,1.258-1.319,1.258-2.183c0-0.827-0.359-1.283-0.887-1.283c-0.707,0-0.959,0.659-1.283,1.823
		c-0.42,1.559-0.912,3.214-2.746,3.214c-1.428,0-2.699-1.079-2.699-3.55C1306.484,231.581,1307.396,230.382,1308.668,229.722z"/>
	<path fill="none" stroke="#98258F" stroke-width="0.2835" stroke-miterlimit="10" d="M1315.527,238.505v2.723
		c0,2.711-1.15,4.75-4.389,4.75c-3.334,0-4.486-2.075-4.486-4.75v-2.723H1315.527z M1308.236,241.359
		c0,1.932,0.863,2.663,2.877,2.663c1.896,0,2.783-0.744,2.783-2.687v-0.888h-5.66V241.359z"/>
</g>
<g>
	<path fill="none" stroke="#98258F" stroke-width="0.2835" stroke-miterlimit="10" d="M1329.646,204.709v1.859l-8.91,3.143v-1.979
		l1.979-0.659v-3.022l-1.979-0.684v-1.799L1329.646,204.709z M1324.131,206.616l3.021-1.02v-0.023l-3.021-1.044V206.616z"/>
	<path fill="none" stroke="#98258F" stroke-width="0.2835" stroke-miterlimit="10" d="M1324.131,210.423h5.48v1.955h-5.434
		c-1.283,0-2.002,0.491-2.002,1.655c0,1.151,0.707,1.631,2.002,1.631h5.434v1.919h-5.469c-2.184,0-3.551-1.104-3.551-3.574
		S1321.959,210.423,1324.131,210.423z"/>
	<path fill="none" stroke="#98258F" stroke-width="0.2835" stroke-miterlimit="10" d="M1329.611,219.267v2.723
		c0,2.711-1.152,4.75-4.391,4.75c-3.334,0-4.484-2.075-4.484-4.75v-2.723H1329.611z M1322.318,222.121
		c0,1.932,0.865,2.663,2.879,2.663c1.895,0,2.783-0.744,2.783-2.687v-0.888h-5.662V222.121z"/>
	<path fill="none" stroke="#98258F" stroke-width="0.2835" stroke-miterlimit="10" d="M1329.611,228.243v1.942h-8.875v-1.942
		H1329.611z"/>
	<path fill="none" stroke="#98258F" stroke-width="0.2835" stroke-miterlimit="10" d="M1325.174,231.688
		c3.117,0,4.605,2.038,4.605,4.186c0,2.135-1.488,4.174-4.605,4.174c-3.119,0-4.605-2.039-4.605-4.174
		C1320.568,233.726,1322.055,231.688,1325.174,231.688z M1325.174,238.104c1.859,0,2.986-0.863,2.986-2.23
		c0-1.38-1.127-2.231-2.986-2.231s-3.035,0.852-3.035,2.231C1322.139,237.24,1323.314,238.104,1325.174,238.104z"/>
</g>
<g>
	<path fill="none" stroke="#98258F" stroke-width="0.2835" stroke-miterlimit="10" d="M1310.047,151.983h5.48v1.955h-5.434
		c-1.283,0-2.002,0.491-2.002,1.655c0,1.151,0.707,1.631,2.002,1.631h5.434v1.919h-5.469c-2.184,0-3.551-1.104-3.551-3.574
		S1307.875,151.983,1310.047,151.983z"/>
	<path fill="none" stroke="#98258F" stroke-width="0.2835" stroke-miterlimit="10" d="M1308.668,160.203l0.875,1.476
		c-0.971,0.491-1.512,1.379-1.512,2.398c0,0.899,0.336,1.547,1.02,1.547c0.672,0,0.961-0.636,1.283-1.799
		c0.445-1.583,0.852-3.238,2.711-3.238c1.654,0,2.65,1.295,2.65,3.202c0,1.823-0.875,2.902-1.822,3.526l-1.031-1.355
		c0.756-0.468,1.258-1.319,1.258-2.183c0-0.827-0.359-1.283-0.887-1.283c-0.707,0-0.959,0.659-1.283,1.823
		c-0.42,1.559-0.912,3.214-2.746,3.214c-1.428,0-2.699-1.079-2.699-3.55C1306.484,162.062,1307.396,160.863,1308.668,160.203z"/>
	<path fill="none" stroke="#98258F" stroke-width="0.2835" stroke-miterlimit="10" d="M1315.527,168.986v3.551
		c0,1.631-0.395,3.166-2.195,3.166c-1.258,0-1.857-0.792-2.037-1.691h-0.025c-0.191,1.08-0.756,1.931-2.17,1.931
		c-1.787,0-2.447-1.57-2.447-3.226v-3.73H1315.527z M1311.869,172.345c0,1.02,0.385,1.487,1.068,1.487
		c0.695,0,1.078-0.42,1.078-1.463v-1.464h-2.146V172.345z M1308.141,172.477c0,1.08,0.432,1.56,1.186,1.56
		c0.781,0,1.164-0.563,1.164-1.644v-1.487h-2.35V172.477z"/>
	<path fill="none" stroke="#98258F" stroke-width="0.2835" stroke-miterlimit="10" d="M1308.176,177.016v1.607h5.59
		c-0.229-0.432-0.408-1.067-0.408-1.583h1.594c0.025,0.684,0.205,1.235,0.576,1.631v1.835h-7.352v1.403h-1.523v-4.894H1308.176z"/>
</g>
<g>
	<path fill="none" stroke="#98258F" stroke-width="0.2835" stroke-miterlimit="10" d="M1310.047,100.18h5.48v1.955h-5.434
		c-1.283,0-2.002,0.491-2.002,1.655c0,1.151,0.707,1.631,2.002,1.631h5.434v1.919h-5.469c-2.184,0-3.551-1.104-3.551-3.574
		S1307.875,100.18,1310.047,100.18z"/>
	<path fill="none" stroke="#98258F" stroke-width="0.2835" stroke-miterlimit="10" d="M1308.668,108.399l0.875,1.476
		c-0.971,0.491-1.512,1.379-1.512,2.398c0,0.899,0.336,1.547,1.02,1.547c0.672,0,0.961-0.636,1.283-1.799
		c0.445-1.583,0.852-3.238,2.711-3.238c1.654,0,2.65,1.295,2.65,3.202c0,1.823-0.875,2.902-1.822,3.526l-1.031-1.355
		c0.756-0.468,1.258-1.319,1.258-2.183c0-0.827-0.359-1.283-0.887-1.283c-0.707,0-0.959,0.659-1.283,1.823
		c-0.42,1.559-0.912,3.214-2.746,3.214c-1.428,0-2.699-1.079-2.699-3.55C1306.484,110.259,1307.396,109.06,1308.668,108.399z"/>
	<path fill="none" stroke="#98258F" stroke-width="0.2835" stroke-miterlimit="10" d="M1315.527,117.183v3.551
		c0,1.631-0.395,3.166-2.195,3.166c-1.258,0-1.857-0.792-2.037-1.691h-0.025c-0.191,1.08-0.756,1.931-2.17,1.931
		c-1.787,0-2.447-1.57-2.447-3.226v-3.73H1315.527z M1311.869,120.541c0,1.02,0.385,1.487,1.068,1.487
		c0.695,0,1.078-0.42,1.078-1.463v-1.464h-2.146V120.541z M1308.141,120.673c0,1.08,0.432,1.56,1.186,1.56
		c0.781,0,1.164-0.563,1.164-1.644v-1.487h-2.35V120.673z"/>
	<path fill="none" stroke="#98258F" stroke-width="0.2835" stroke-miterlimit="10" d="M1306.844,125.14
		c1.283,0,2.531,0.312,4.031,2.65c0.875,1.38,1.211,1.919,2.109,1.919c0.66,0,1.08-0.419,1.08-1.163
		c0-0.695-0.455-1.427-1.271-1.942l0.973-1.38c1.174,0.768,1.93,1.812,1.93,3.383c0,1.906-1.008,2.998-2.578,2.998
		c-0.984,0-1.859-0.264-2.939-1.967c-0.814-1.283-1.475-2.135-2.002-2.183v4.209h-1.523v-6.524H1306.844z"/>
</g>
<g>
	<path fill="none" stroke="#98258F" stroke-width="0.2835" stroke-miterlimit="10" d="M1450.285,343.577v-2.639h1.631v7.244h-1.631
		v-2.65h-7.244v-1.955H1450.285z"/>
	<path fill="none" stroke="#98258F" stroke-width="0.2835" stroke-miterlimit="10" d="M1447.73,351.557l4.186-2.592v2.23
		l-2.662,1.584l2.662,1.5v2.014l-4.197-2.531l-4.678,2.879v-2.17l3.107-1.883l-3.107-1.824v-2.051L1447.73,351.557z"/>
</g>
<g>
	<path fill="none" stroke="#98258F" stroke-width="0.2835" stroke-miterlimit="10" d="M1451.822,411.846v3.336
		c0,2.182-0.779,3.488-2.746,3.488c-1.402,0-2.17-0.658-2.529-1.846l-3.6,1.979v-2.062l3.348-1.848v-1.127h-3.348v-1.92H1451.822z
		 M1447.805,415.098c0,1.127,0.324,1.666,1.225,1.666c0.875,0,1.199-0.539,1.199-1.666v-1.332h-2.424V415.098z"/>
	<path fill="none" stroke="#98258F" stroke-width="0.2835" stroke-miterlimit="10" d="M1447.637,422.381l4.186-2.59v2.23
		l-2.662,1.582l2.662,1.5v2.016l-4.197-2.531l-4.678,2.879v-2.172l3.107-1.883l-3.107-1.822v-2.051L1447.637,422.381z"/>
</g>
<circle fill="none" stroke="#000000" stroke-miterlimit="10" cx="935.115" cy="287.546" r="4.252"/>
<circle fill="none" stroke="#000000" stroke-miterlimit="10" cx="878.42" cy="287.546" r="4.252"/>
<circle fill="none" stroke="#000000" stroke-miterlimit="10" cx="935.115" cy="344.239" r="4.252"/>
<circle fill="none" stroke="#000000" stroke-miterlimit="10" cx="878.42" cy="344.239" r="4.252"/>
<path fill="none" stroke="#000000" stroke-miterlimit="10" d="M906.732,283.328c-17.998,0-32.598,14.592-32.598,32.598
	c0,17.999,14.6,32.599,32.598,32.599c18.001,0,32.601-14.6,32.601-32.599C939.333,297.92,924.734,283.328,906.732,283.328z"/>
<text transform="matrix(1 0 0 1 135.2769 1313.3125)" fill="none" stroke="#98258F" stroke-width="0.2835" stroke-miterlimit="10" font-family="'Eng_HelvLine'" font-size="18">Purple: raster etch</text>
</svg>
